HIERARCHY
ROOT reference
{
  OFFSET 0 0 0
  CHANNELS 6 Xposition Yposition Zposition Zrotation Xrotation Yrotation
  JOINT Hips
  {
    OFFSET 12.6392 86.5131 92.7628
    CHANNELS 6 Xposition Yposition Zposition Zrotation Xrotation Yrotation
    JOINT Spine
    {
      OFFSET 0 7.85829 0
      CHANNELS 6 Xposition Yposition Zposition Zrotation Xrotation Yrotation
      JOINT Spine1
      {
        OFFSET 0 25.1384 0
        CHANNELS 6 Xposition Yposition Zposition Zrotation Xrotation Yrotation
        JOINT Neck
        {
          OFFSET 0 25.0351 2.27592
          CHANNELS 6 Xposition Yposition Zposition Zrotation Xrotation Yrotation
          JOINT Head
          {
            OFFSET 0 13.4166 -1.91665
            CHANNELS 6 Xposition Yposition Zposition Zrotation Xrotation Yrotation
            End Site
            {
              OFFSET 0 23.9582 0
            }
          }
        }
        JOINT LeftShoulder
        {
          OFFSET 3.81534 24.0346 -0.234509
          CHANNELS 6 Xposition Yposition Zposition Zrotation Xrotation Yrotation
          JOINT LeftArm
          {
            OFFSET 8.62273 0 0
            CHANNELS 6 Xposition Yposition Zposition Zrotation Xrotation Yrotation
            JOINT LeftForeArm
            {
              OFFSET 31.7064 0 0
              CHANNELS 6 Xposition Yposition Zposition Zrotation Xrotation Yrotation
              JOINT LeftHand
              {
                OFFSET 23.7731 0 0
                CHANNELS 6 Xposition Yposition Zposition Zrotation Xrotation Yrotation
                End Site
                {
                  OFFSET 14.3749 0 0
                }
              }
            }
          }
        }
        JOINT RightShoulder
        {
          OFFSET -3.83608 24.0346 -0.234509
          CHANNELS 6 Xposition Yposition Zposition Zrotation Xrotation Yrotation
          JOINT RightArm
          {
            OFFSET -8.62273 0 0
            CHANNELS 6 Xposition Yposition Zposition Zrotation Xrotation Yrotation
            JOINT RightForeArm
            {
              OFFSET -31.7064 0 0
              CHANNELS 6 Xposition Yposition Zposition Zrotation Xrotation Yrotation
              JOINT RightHand
              {
                OFFSET -23.7731 0 0
                CHANNELS 6 Xposition Yposition Zposition Zrotation Xrotation Yrotation
                End Site
                {
                  OFFSET -14.3749 0 0
                }
              }
            }
          }
        }
      }
    }
    JOINT LeftUpLeg
    {
      OFFSET 9.58328 0 0
      CHANNELS 6 Xposition Yposition Zposition Zrotation Xrotation Yrotation
      JOINT LeftLeg
      {
        OFFSET 0 -36.4535 0
        CHANNELS 6 Xposition Yposition Zposition Zrotation Xrotation Yrotation
        JOINT LeftFoot
        {
          OFFSET 0 -41.4659 0
          CHANNELS 6 Xposition Yposition Zposition Zrotation Xrotation Yrotation
          JOINT LeftToeBase
          {
            OFFSET 0 -6.22913 14.3749
            CHANNELS 6 Xposition Yposition Zposition Zrotation Xrotation Yrotation
            End Site
            {
              OFFSET 0 0 3.83331
            }
          }
        }
      }
    }
    JOINT RightUpLeg
    {
      OFFSET -9.58328 0 0
      CHANNELS 6 Xposition Yposition Zposition Zrotation Xrotation Yrotation
      JOINT RightLeg
      {
        OFFSET 0 -36.4535 0
        CHANNELS 6 Xposition Yposition Zposition Zrotation Xrotation Yrotation
        JOINT RightFoot
        {
          OFFSET 0 -41.4659 0
          CHANNELS 6 Xposition Yposition Zposition Zrotation Xrotation Yrotation
          JOINT RightToeBase
          {
            OFFSET 0 -6.22913 14.3749
            CHANNELS 6 Xposition Yposition Zposition Zrotation Xrotation Yrotation
            End Site
            {
              OFFSET 0 0 3.83331
            }
          }
        }
      }
    }
  }
}
MOTION
Frames:	9
Frame Time:	0.004
0 0 0 0 0 -0 -7.81961 73.0308 -181.414 2.31676 0.741098 -1.43672 0 7.85829 0 -2.77836 3.23902 3.93974 0 25.1384 0 2.08437 10.2532 3.66816 0 25.0351 2.27592 -0.971826 27.4501 -6.47992 3.55271e-015 13.4166 -1.91665 0.069721 -33.0335 -6.80985 3.81534 24.0346 -0.234509 -21.3299 22.2581 9.89817 8.62273 -1.42109e-014 0 -33.5766 39.6805 -18.1217 31.7064 1.42109e-014 0 7.49383 -19.2065 -40.2352 23.7731 0 2.84217e-014 21.9666 -17.4485 -4.62013 -3.83608 24.0346 -0.234509 16.1623 34.5931 1.5289 -8.62273 0 2.84217e-014 6.88026 40.6862 45.9503 -31.7064 -2.84217e-014 0 -20.3513 -31.7361 63.6454 -23.7731 1.42109e-014 0 -12.0442 -19.6436 -6.03421 9.58328 0 -2.84217e-014 -4.69971 -25.1398 -2.77046 0 -36.4535 0 -8.15498 41.3003 0.582936 -3.55271e-015 -41.4659 0 20.2943 -24.703 15.6365 8.88178e-016 -6.22913 14.3749 -3.47873e-015 0 -0 -9.58328 -1.42109e-014 -2.84217e-014 -2.23692 -3.41254 1.15312 -3.55271e-015 -36.4535 -2.84217e-014 5.91533 42.5185 6.81025 -1.77636e-015 -41.4659 0 -5.71996 -29.7881 -19.2222 0 -6.22913 14.3749 -7.95139e-016 1.59028e-015 -1.59028e-015 
0 0 0 0 0 -0 -7.80833 72.9029 -181.073 2.36675 0.613105 -1.39285 0 7.85829 0 -2.85177 3.39381 3.94105 0 25.1384 0 1.98581 10.2357 3.66977 0 25.0351 2.27592 -1.031 27.3729 -6.46411 1.77636e-015 13.4166 -1.91665 0.303978 -33.2373 -6.69993 3.81534 24.0346 -0.234509 -21.5444 22.1772 9.83133 8.62273 -1.42109e-014 2.84217e-014 -33.0141 39.6622 -18.465 31.7064 -1.42109e-014 0 6.77857 -19.4673 -38.8105 23.7731 7.10543e-015 2.84217e-014 22.1828 -18.1435 -5.05857 -3.83608 24.0346 -0.234509 16.0062 34.5395 1.69351 -8.62273 0 0 6.8093 40.5648 46.1046 -31.7064 2.84217e-014 0 -20.8559 -32.2488 65.07 -23.7731 1.42109e-014 0 -11.6811 -19.5493 -6.27997 9.58328 0 2.84217e-014 -4.94954 -25.0263 -3.14412 -1.77636e-015 -36.4535 0 -8.25796 41.7615 0.603095 0 -41.4659 0 21.117 -24.6532 16.3757 0 -6.22913 14.3749 1.98785e-015 -1.59028e-015 -0 -9.58328 0 2.84217e-014 -2.37192 -4.13924 1.10075 0 -36.4535 0 6.20763 44.4346 6.09886 0 -41.4659 0 -4.75268 -29.407 -18.4196 0 -6.22913 14.3749 -0 0 1.59028e-015 
0 0 0 0 0 -0 -7.79333 72.7798 -180.711 2.42321 0.445996 -1.37691 1.77636e-015 7.85829 -2.84217e-014 -2.91975 3.55844 3.94116 0 25.1384 0 1.8523 10.2495 3.68428 0 25.0351 2.27592 -1.05397 27.2966 -6.44607 0 13.4166 -1.91665 0.548689 -33.452 -6.57839 3.81534 24.0346 -0.234509 -21.7229 22.1179 9.70065 8.62273 1.42109e-014 0 -32.5415 39.6746 -18.7158 31.7064 1.42109e-014 0 6.2248 -19.5482 -37.3739 23.7731 0 0 22.3811 -18.5621 -5.37594 -3.83608 24.0346 -0.234509 15.9014 34.5161 1.80264 -8.62273 0 0 6.67141 40.3657 46.3133 -31.7064 0 0 -21.3644 -32.7836 66.5631 -23.7731 -1.42109e-014 0 -11.3754 -19.4453 -6.43288 9.58328 0 -2.84217e-014 -5.21388 -24.8079 -3.43784 -1.77636e-015 -36.4535 0 -8.27383 42.2101 0.155231 3.55271e-015 -41.4659 0 22.1119 -24.5463 17.5983 0 -6.22913 14.3749 -9.93923e-017 -3.18055e-015 -0 -9.58328 0 0 -2.55102 -4.87484 1.1892 0 -36.4535 0 6.72235 46.1844 2.81806 -3.55271e-015 -41.4659 2.84217e-014 -3.08029 -28.8576 -15.1353 -7.10543e-015 -6.22913 14.3749 -7.95139e-016 0 -0 
0 0 0 0 0 -0 -7.78252 72.6629 -180.358 2.47915 0.313008 -1.33782 1.77636e-015 7.85829 0 -2.99198 3.68813 3.93504 -1.77636e-015 25.1384 2.84217e-014 1.7185 10.256 3.68444 1.77636e-015 25.0351 2.27592 -1.03329 27.274 -6.43389 0 13.4166 -1.91665 0.740116 -33.7196 -6.48026 3.81534 24.0346 -0.234509 -21.8447 22.1273 9.55471 8.62273 0 0 -32.0331 39.6208 -19.1017 31.7064 -1.42109e-014 0 5.52138 -19.7305 -36.0403 23.7731 0 0 22.9704 -19.0894 -5.49722 -3.83608 24.0346 -0.234509 15.7252 34.4954 2.00513 -8.62273 0 0 6.61944 40.1624 46.4556 -31.7064 -2.84217e-014 0 -21.7189 -33.2042 68.1587 -23.7731 -1.42109e-014 0 -11.7518 -19.1936 -6.94159 9.58328 -1.42109e-014 -2.84217e-014 -5.47072 -24.6336 -3.70257 1.77636e-015 -36.4535 -2.84217e-014 -8.25072 42.6631 -0.18314 0 -41.4659 0 22.8318 -24.5868 18.5023 0 -6.22913 14.3749 -2.68359e-015 4.77083e-015 -7.95139e-016 -9.58328 0 -2.84217e-014 -2.72522 -5.71401 1.0106 -3.55271e-015 -36.4535 0 6.99171 48.3285 3.13245 1.77636e-015 -41.4659 0 -2.61648 -28.0027 -15.3433 0 -6.22913 14.3749 3.97569e-016 3.18055e-015 -1.59028e-015 
0 0 0 0 0 -0 -7.75597 72.561 -179.987 2.56757 0.080578 -1.3777 0 7.85829 0 -3.07404 3.90673 3.96225 -3.55271e-015 25.1384 2.84217e-014 1.53885 10.2663 3.71912 1.77636e-015 25.0351 2.27592 -0.986991 27.2489 -6.40065 -1.77636e-015 13.4166 -1.91665 0.899926 -33.9837 -6.37019 3.81534 24.0346 -0.234509 -21.9846 21.9989 9.40764 8.62273 0 0 -31.5845 39.6748 -19.3106 31.7064 -1.42109e-014 -2.84217e-014 5.0287 -19.9076 -34.6102 23.7731 7.10543e-015 0 22.8723 -19.5871 -6.06054 -3.83608 24.0346 -0.234509 15.6262 34.4976 2.15056 -8.62273 0 -2.84217e-014 6.48984 39.9693 46.6516 -31.7064 -2.84217e-014 0 -21.8748 -33.6705 69.872 -23.7731 0 0 -12.8974 -19.0012 -7.68505 9.58328 0 0 -5.7504 -24.2972 -3.77587 1.77636e-015 -36.4535 -2.84217e-014 -8.09173 43.0436 -0.431745 -7.10543e-015 -41.4659 -2.84217e-014 23.3352 -24.7427 19.0813 0 -6.22913 14.3749 -5.96354e-016 3.18055e-015 -7.95139e-016 -9.58328 -1.42109e-014 -2.84217e-014 -2.96875 -6.4202 1.2382 -3.55271e-015 -36.4535 2.84217e-014 7.7112 50.2818 2.33105 1.77636e-015 -41.4659 0 -2.16412 -26.9912 -14.9801 7.10543e-015 -6.22913 14.3749 8.82781e-032 -3.18055e-015 1.59028e-015 
0 0 0 0 0 -0 -7.75973 72.43 -179.674 2.58181 0.010237 -1.28548 0 7.85829 2.84217e-014 -3.11959 4.08639 3.91954 0 25.1384 0 1.41666 10.1364 3.68256 1.77636e-015 25.0351 2.27592 -1.00196 27.2421 -6.35569 0 13.4166 -1.91665 1.17962 -34.2331 -6.20244 3.81534 24.0346 -0.234509 -22.183 22.0242 9.27952 8.62273 1.42109e-014 0 -30.992 39.6806 -19.6606 31.7064 1.42109e-014 0 4.5095 -20.0644 -33.1685 23.7731 -7.10543e-015 0 22.8137 -20.0149 -6.39179 -3.83608 24.0346 -0.234509 15.4693 34.4386 2.35901 -8.62273 -2.84217e-014 0 6.65023 39.6717 46.6305 -31.7064 -2.84217e-014 0 -22.2478 -34.1156 71.5337 -23.7731 0 -1.42109e-014 -12.4491 -18.8006 -7.70642 9.58328 -1.42109e-014 2.84217e-014 -5.98212 -24.2649 -3.96811 0 -36.4535 0 -7.95811 43.6021 -0.563887 0 -41.4659 0 23.7304 -24.9302 19.4654 8.88178e-016 -6.22913 14.3749 2.98177e-016 -1.59028e-015 -0 -9.58328 0 0 -3.09965 -7.45897 1.3252 7.10543e-015 -36.4535 -2.84217e-014 8.47595 52.4379 1.14869 1.77636e-015 -41.4659 0 -1.88554 -25.7101 -14.3836 0 -6.22913 14.3749 -1.59028e-015 -3.18055e-015 1.59028e-015 
0 0 0 0 0 -0 -7.74346 72.3184 -179.336 2.71198 -0.126634 -1.24926 0 7.85829 0 -3.2482 4.24213 3.90098 -1.77636e-015 25.1384 0 1.19132 10.1367 3.67496 -1.77636e-015 25.0351 2.27592 -0.794581 27.2513 -6.33506 -1.77636e-015 13.4166 -1.91665 1.23924 -34.6022 -6.12912 3.81534 24.0346 -0.234509 -22.2232 21.8261 9.01771 8.62273 -1.42109e-014 0 -30.6973 39.7079 -19.7131 31.7064 0 0 3.94649 -20.2653 -31.9636 23.7731 0 0 23.1788 -20.4358 -6.39338 -3.83608 24.0346 -0.234509 15.4145 34.3636 2.52669 -8.62273 -1.42109e-014 2.84217e-014 6.55463 39.4698 46.7268 -31.7064 0 0 -22.5509 -34.6772 73.2025 -23.7731 -2.84217e-014 0 -12.3976 -18.7085 -7.9613 9.58328 0 0 -6.31328 -24.0472 -4.02209 0 -36.4535 2.84217e-014 -7.70953 43.9566 -0.38681 0 -41.4659 0 23.8837 -25.2608 19.3461 -1.77636e-015 -6.22913 14.3749 1.98785e-015 -3.18055e-015 7.95139e-016 -9.58328 0 -2.84217e-014 -3.37882 -8.41397 1.33227 0 -36.4535 0 9.15121 54.4974 -0.232717 1.77636e-015 -41.4659 0 -2.00948 -24.2165 -13.4974 0 -6.22913 14.3749 -7.95139e-016 6.36111e-015 -0 
0 0 0 0 0 -0 -7.7482 72.2097 -178.983 2.73908 -0.315971 -1.19723 1.77636e-015 7.85829 2.84217e-014 -3.32107 4.45328 3.87939 0 25.1384 2.84217e-014 1.06878 10.1033 3.65572 1.77636e-015 25.0351 2.27592 -0.725648 27.219 -6.3093 3.55271e-015 13.4166 -1.91665 1.44982 -34.816 -6.00055 3.81534 24.0346 -0.234509 -22.3216 21.8294 8.82309 8.62273 1.42109e-014 2.84217e-014 -30.2423 39.7864 -20.0247 31.7064 1.42109e-014 0 3.58977 -20.4607 -30.599 23.7731 7.10543e-015 2.84217e-014 23.3772 -20.8109 -6.54928 -3.83608 24.0346 -0.234509 15.2646 34.2911 2.70627 -8.62273 -4.26326e-014 -2.84217e-014 6.51886 39.3494 46.8395 -31.7064 0 0 -22.9707 -35.3133 74.8301 -23.7731 1.42109e-014 0 -12.6195 -18.5647 -8.40969 9.58328 0 2.84217e-014 -6.50669 -23.7559 -3.97096 0 -36.4535 0 -7.39437 44.3535 -0.655394 0 -41.4659 0 24.3185 -25.5422 19.5972 0 -6.22913 14.3749 1.68967e-015 0 7.95139e-016 -9.58328 1.42109e-014 2.84217e-014 -3.54394 -9.31988 1.45632 0 -36.4535 -2.84217e-014 10.0712 56.514 -1.29744 1.77636e-015 -41.4659 0 -2.36237 -22.4803 -13.1775 0 -6.22913 14.3749 0 0 -0 
0 0 0 0 0 -0 -7.7629 72.113 -178.619 2.75892 -0.57136 -1.12658 -1.77636e-015 7.85829 0 -3.39447 4.74565 3.8484 0 25.1384 2.84217e-014 0.928953 10.0416 3.62606 1.77636e-015 25.0351 2.27592 -0.617485 27.2123 -6.24507 -1.77636e-015 13.4166 -1.91665 1.64477 -35.0711 -5.83349 3.81534 24.0346 -0.234509 -22.4037 21.8082 8.66878 8.62273 -1.42109e-014 0 -29.7303 39.7421 -20.3523 31.7064 0 0 2.96684 -20.6699 -29.352 23.7731 -7.10543e-015 -2.84217e-014 23.5364 -21.2679 -6.79614 -3.83608 24.0346 -0.234509 15.121 34.2797 2.84118 -8.62273 0 -2.84217e-014 6.42112 39.166 47.0461 -31.7064 0 1.42109e-014 -23.4015 -35.9572 76.4241 -23.7731 -7.10543e-015 2.84217e-014 -12.8423 -18.4068 -8.82479 9.58328 0 0 -6.66004 -23.3971 -3.88523 0 -36.4535 0 -7.094 44.7446 -0.906897 0 -41.4659 0 24.5496 -25.8698 19.8697 0 -6.22913 14.3749 -1.78906e-015 -1.59028e-015 3.97569e-016 -9.58328 0 0 -3.67129 -10.1404 1.54451 3.55271e-015 -36.4535 0 10.9254 58.3681 -2.42444 0 -41.4659 0 -2.29736 -20.7101 -12.6545 7.10543e-015 -6.22913 14.3749 -1.76556e-031 -6.36111e-015 -1.59028e-015 
